<?xml version="1.0" encoding="UTF-8" standalone="no"?>
<!-- Created with Inkscape (http://www.inkscape.org/) -->

<svg
   width="17.972748mm"
   height="17.972765mm"
   viewBox="0 0 17.972748 17.972765"
   version="1.1"
   id="svg1"
   xmlns="http://www.w3.org/2000/svg"
   xmlns:svg="http://www.w3.org/2000/svg">
  <defs
     id="defs1" />
  <g
     id="layer1"
     transform="translate(-71.437502,-83.079168)">
    <path
       style="fill:#ffc317;fill-opacity:1;stroke-width:1.13657"
       d="m 71.4375,92.065537 v -8.98637 h 8.98637 8.98638 v 8.98637 8.986393 H 80.42387 71.4375 Z m 6.37531,5.63285 c 0.56526,-0.3154 1.10595,-1.00474 1.28021,-1.63213 0.0573,-0.20654 0.10459,-0.82357 0.10492,-1.37118 l 5.4e-4,-0.99564 H 78.39694 77.5954 l -0.0654,0.99537 c -0.0741,1.12823 -0.22308,1.4333 -0.79193,1.62174 l -0.34784,0.11523 -0.0299,0.84384 -0.0299,0.84384 0.48237,-0.0661 c 0.2653,-0.0364 0.71531,-0.19609 1.00001,-0.35495 z m -2.56038,-1.21625 c 0.0348,-0.21061 0.0639,-0.62647 0.0644,-0.92412 0.002,-0.85874 0.19287,-1.11154 1.04783,-1.38628 0.15088,-0.0484 0.17871,-0.18699 0.17871,-0.88917 v -0.83175 l -0.48506,0.0696 c -0.69825,0.10025 -1.29373,0.41647 -1.74085,0.92442 -0.51275,0.58251 -0.64034,1.00186 -0.70663,2.32244 l -0.0551,1.09776 h 0.8167 0.8167 z m 6.37808,-2.0583 c 1.03476,-0.5279 1.40238,-1.23745 1.50507,-2.90496 l 0.0737,-1.19806 -0.85662,0.0299 -0.85662,0.0299 -0.0511,0.97545 c -0.0605,1.15527 -0.2118,1.45931 -0.81653,1.64049 l -0.40888,0.1225 v 0.81502 0.815 l 0.5036,-0.0596 c 0.27698,-0.0328 0.68525,-0.15232 0.90727,-0.26558 z m -2.43148,-1.61794 c 8.2e-4,-1.07436 0.13743,-1.5199 0.54181,-1.76647 0.17909,-0.1092 0.40604,-0.1987 0.50432,-0.19892 0.15619,-2.7e-4 0.17871,-0.11002 0.17871,-0.87033 v -0.86995 l -0.28082,0.0588 c -0.88884,0.18601 -1.19217,0.31494 -1.61365,0.68595 -0.73142,0.64381 -0.89044,1.04989 -0.95802,2.44641 l -0.0579,1.19592 0.66377,0.035 c 0.36507,0.0192 0.74418,0.044 0.84247,0.055 0.15651,0.0175 0.17878,-0.0783 0.17928,-0.77142 z m 6.03819,-1.63102 c 0.71043,-0.22801 1.4185,-0.91615 1.65407,-1.60748 0.11565,-0.33942 0.17025,-0.83767 0.17025,-1.5537 v -1.05405 h -0.80738 -0.80737 l -0.0351,1.02972 c -0.0346,1.01585 -0.0396,1.03374 -0.36859,1.32753 -0.18343,0.1638 -0.44766,0.29781 -0.58718,0.29781 -0.25028,0 -0.25369,0.0117 -0.25369,0.86801 0,0.84664 0.007,0.86799 0.24358,0.86799 0.13396,0 0.4901,-0.0791 0.79141,-0.17583 z m -2.05617,-2.0299 c 0,-0.97874 7e-4,-0.98091 0.34721,-1.32754 0.2168,-0.2168 0.44691,-0.3472 0.61271,-0.3472 0.26538,0 0.2655,-4.2e-4 0.2655,-0.8796 v -0.87959 l -0.48506,0.0715 c -1.03099,0.15188 -2.03586,0.98359 -2.2602,1.87075 -0.0527,0.20826 -0.12652,0.84967 -0.16413,1.42536 l -0.0684,1.04671 h 0.87619 0.87618 z"
       id="path2647-7" />
    <path
       style="fill:#a22c2c;fill-opacity:1;stroke-width:0.0281519"
       d="m 76.3556,98.018277 c -0.004,-0.0116 -0.002,-0.36948 0.005,-0.79529 0.0111,-0.60655 0.0218,-0.7726 0.05,-0.7669 0.0737,0.015 0.42665,-0.0757 0.56235,-0.14446 0.29039,-0.14716 0.50599,-0.44872 0.5661,-0.79182 0.0225,-0.12823 0.058,-1.16046 0.0601,-1.74279 1.4e-4,-0.0517 0.0218,-0.053 0.57026,-0.0353 0.31354,0.01 0.66914,0.0185 0.79021,0.0185 l 0.22014,1.5e-4 -0.0185,0.87974 c -0.0112,0.53473 -0.034,0.9736 -0.058,1.11904 -0.11786,0.71174 -0.5423,1.39848 -1.09574,1.77293 -0.2462,0.16658 -0.37808,0.23394 -0.66537,0.33987 -0.32477,0.11974 -0.9591,0.21383 -0.98689,0.14639 z m -1.96177,-1.18236 -0.7707,-0.008 0.0191,-0.87929 c 0.0206,-0.94955 0.0464,-1.17228 0.18234,-1.5796 0.23578,-0.70627 0.80687,-1.3266 1.47059,-1.59738 0.29839,-0.12173 0.73826,-0.2219 0.97445,-0.2219 0.17991,0 0.20753,0.007 0.19289,0.0445 -0.01,0.0244 -0.017,0.3774 -0.017,0.78424 v 0.73972 l -0.166,0.0174 c -0.44633,0.0466 -0.80229,0.31341 -0.96424,0.72262 -0.0547,0.13825 -0.0635,0.23175 -0.0825,0.87271 -0.0117,0.39483 -0.0223,0.80971 -0.0236,0.92197 -10e-4,0.11225 -0.0118,0.20115 -0.0235,0.19754 -0.0116,-0.003 -0.36793,-0.01 -0.79181,-0.0146 z m 5.89143,-2.33662 c 0.007,-0.10449 0.0123,-0.45777 0.0139,-0.785 l 0.003,-0.59499 0.16138,-0.0202 c 0.42318,-0.0529 0.73402,-0.26022 0.90862,-0.60612 0.11443,-0.22668 0.13447,-0.39382 0.15592,-1.30017 l 0.0191,-0.80796 0.77804,0.0165 c 0.42792,0.009 0.78042,0.0182 0.78334,0.0203 0.003,0.002 -0.005,0.44056 -0.0192,0.97441 -0.027,1.0734 -0.0403,1.16821 -0.2251,1.62085 -0.23239,0.56915 -0.59657,0.99132 -1.12635,1.3058 -0.33588,0.19938 -0.92106,0.36652 -1.28324,0.36652 H 80.2743 Z m -2.17629,-1.01344 -0.54638,-0.009 0.0194,-0.87362 c 0.0264,-1.18621 0.0916,-1.52245 0.40112,-2.0687 0.42367,-0.74764 1.27164,-1.26954 2.1572,-1.32768 l 0.24633,-0.0162 v 0.78917 0.78918 l -0.15068,0.0188 c -0.37261,0.0466 -0.64839,0.19882 -0.83691,0.4621 -0.19634,0.27418 -0.2154,0.38429 -0.2387,1.37878 l -0.0205,0.8775 -0.24225,-0.007 c -0.13323,-0.003 -0.48811,-0.01 -0.78863,-0.0147 z m 6.1441,-2.61814 c 0.01,-0.24387 0.0185,-0.60308 0.0185,-0.79826 l 7e-5,-0.35487 0.19002,-0.0177 c 0.23823,-0.0223 0.50412,-0.14816 0.67617,-0.32021 0.12963,-0.12964 0.26726,-0.39491 0.3147,-0.60659 0.0152,-0.0679 0.0291,-0.49308 0.031,-0.94482 l 0.003,-0.82136 h 0.48601 c 0.26731,0 0.62101,0.009 0.78599,0.0184 l 0.29997,0.0183 -9.5e-4,0.57987 c -0.001,0.80087 -0.0399,1.37682 -0.11059,1.64964 -0.0714,0.27558 -0.29326,0.73601 -0.46419,0.96339 -0.30836,0.41021 -0.75059,0.72761 -1.25379,0.89991 -0.25162,0.0861 -0.71946,0.17715 -0.91269,0.17754 l -0.0818,1.4e-4 0.0183,-0.44338 z m -2.63473,-0.78905 -0.0774,-0.01 10e-4,-0.56821 c 0.001,-0.81358 0.0403,-1.39718 0.11082,-1.66613 0.0719,-0.27423 0.27034,-0.69706 0.43536,-0.92743 0.34274,-0.47852 0.91838,-0.86264 1.51802,-1.01304 0.25408,-0.0637 0.69401,-0.11139 0.72666,-0.0787 0.0152,0.0152 0.0177,0.34158 0.007,0.80074 l -0.0197,0.77501 -0.16262,0.0169 c -0.45202,0.0473 -0.78495,0.30633 -0.96026,0.74727 -0.0589,0.14796 -0.0636,0.21309 -0.0779,1.04458 l -0.0152,0.88679 -0.70379,10e-4 c -0.38708,4.2e-4 -0.73864,-0.003 -0.78121,-0.009 z"
       id="path9723-6" />
  </g>
</svg>
